inDegrees=no
num_controls=7
num_derivatives=13
num_iterations=122
num_multipliers=7
num_parameters=0
num_slacks=7
num_states=26
objective=5.197034
objective_accelerations=0.535565
objective_balance=0.032770
objective_effort=0.309615
objective_height=4.213336
objective_ligament=0.105748
solver_duration=1358.307705
status=Solve_Succeeded
success=true
DataType=double
version=3
OpenSimVersion=4.4-2022-07-23-0e9fedc
endheader
time	/jointset/ground_pelvis/pelvis_tilt/value	/jointset/ground_pelvis/pelvis_tx/value	/jointset/ground_pelvis/pelvis_ty/value	/jointset/hip_l/hip_flexion_l/value	/jointset/hip_l/hip_adduction_l/value	/jointset/hip_l/hip_rotation_l/value	/jointset/back/lumbar_extension/value	/jointset/patellofemoral_l/patellar_flexion_l/value	/jointset/knee_l/knee_flexion_l/value	/jointset/knee_l/knee_adduction_l/value	/jointset/knee_l/knee_rotation_l/value	/jointset/ankle_l/ankle_angle_l/value	/jointset/subtalar_l/subtalar_angle_l/value	/jointset/ground_pelvis/pelvis_tilt/speed	/jointset/ground_pelvis/pelvis_tx/speed	/jointset/ground_pelvis/pelvis_ty/speed	/jointset/hip_l/hip_flexion_l/speed	/jointset/hip_l/hip_adduction_l/speed	/jointset/hip_l/hip_rotation_l/speed	/jointset/back/lumbar_extension/speed	/jointset/patellofemoral_l/patellar_flexion_l/speed	/jointset/knee_l/knee_flexion_l/speed	/jointset/knee_l/knee_adduction_l/speed	/jointset/knee_l/knee_rotation_l/speed	/jointset/ankle_l/ankle_angle_l/speed	/jointset/subtalar_l/subtalar_angle_l/speed	/forceset/tau_hip_flexion_l	/forceset/tau_hip_adduction_l	/forceset/tau_hip_rotation_l	/forceset/tau_knee_flexion_l	/forceset/tau_ankle_angle_l	/forceset/tau_subtalar_angle_l	/forceset/tau_lumbar_extension	lambda_cid13_p0	lambda_cid13_p1	lambda_cid13_p2	lambda_cid13_p3	lambda_cid13_p4	lambda_cid13_p5	lambda_cid14_p0	/jointset/ground_pelvis/pelvis_tilt/accel	/jointset/ground_pelvis/pelvis_tx/accel	/jointset/ground_pelvis/pelvis_ty/accel	/jointset/hip_l/hip_flexion_l/accel	/jointset/hip_l/hip_adduction_l/accel	/jointset/hip_l/hip_rotation_l/accel	/jointset/back/lumbar_extension/accel	/jointset/patellofemoral_l/patellar_flexion_l/accel	/jointset/knee_l/knee_flexion_l/accel	/jointset/knee_l/knee_adduction_l/accel	/jointset/knee_l/knee_rotation_l/accel	/jointset/ankle_l/ankle_angle_l/accel	/jointset/subtalar_l/subtalar_angle_l/accel	gamma_cid13_p0	gamma_cid13_p1	gamma_cid13_p2	gamma_cid13_p3	gamma_cid13_p4	gamma_cid13_p5	gamma_cid14_p0
1	-0.7177898294061805	-0.1805833016166948	0.6227486186895603	1.841466159037485	-0.4652604298571603	-0.1397276841143656	-0.2617967132322224	0.9756663159913159	0.9756663159912813	-0.157207265792175	-0.174529878883995	-0.08687691956910668	-0.1590122189134674	-0.02040974807696623	0.008086315774961279	0.003826149435836381	0.002375112936451595	-0.001221612391947451	0.0006860725742861601	-1.110130586943485e-05	-0.004991671235389516	-0.0049916712353897	-0.005368300132671803	4.319379128164639e-06	0.01229532498314201	0.00422926287180038	-0.4063501941222346	0.01584244754131511	-0.004517945188689189	-0.1893587301099271	0.1656331545205613	0.08397281704027321	0.3291168509219189	11.99434908796651	-39.13541432572031	6.549727864207692	-7.54696418614548	-632.6436199799598	-49.90232073169298	-17.76476894397529	2.396311005287767	0.6947046568287607	1.59697164450769	-6.65824223445196	0.2380917810404125	-1.721868805994767	-0.02628794770158658	-3.671415948430329	-3.671415948430302	-0.1266359978811964	-0.01275531051895319	0.2113033425288544	0.3522087405759496	-1.560370921588366e-10	3.095778857123978e-09	-1.779637092014695e-09	3.583712571939689e-09	-3.255689868285307e-09	3.881776533888827e-09	5.987018146591436e-10
1.01	-0.7178753916773638	-0.180467761514998	0.622866585997122	1.841158593944606	-0.4652600404516732	-0.139806904070558	-0.2617967849030947	0.9754328407257007	0.9754328407256001	-0.1572659971985846	-0.1745298142881798	-0.08674329001999161	-0.1589515650913364	0.003296370113882547	0.01502833702727039	0.01976476012183213	-0.06388442313549661	0.001300714092461155	-0.01652712699789812	-3.34198248669392e-06	-0.04169462439951045	-0.04169462439950745	-0.006375660314054028	7.894792097538183e-06	0.01443827329717996	0.007906272658374184	-0.4061237469507099	0.01578017772684854	-0.004518361215143088	-0.1894804936531389	0.1658742931931517	0.08393989032004973	0.3289729571977491	12.08124886725613	-39.14747554714364	6.564381841229496	-7.73638527992546	-632.5329585312777	-49.92937761807851	-17.77577545400602	2.357623188897979	0.6949457404044455	1.591921483902353	-6.609253658830656	0.2594872410317498	-1.720607513825271	0.01429150590027241	-3.668420656548801	-3.668420656548431	-0.0874393898123665	0.006810426382748629	0.2169438529375511	0.3761626391835818	-2.45014828679313e-09	-3.95247514451341e-09	6.671112414986063e-09	9.391188836255139e-11	-7.474714559255893e-09	1.809493739995935e-08	-3.560929247165079e-09
1.02	-0.7177239205740517	-0.1802826022245839	0.6231438625521947	1.840188544617961	-0.4652343909495636	-0.1400581684186578	-0.261796782254044	0.974832598797208	0.9748325987970462	-0.1573347328790963	-0.1745297346464107	-0.0865880003323073	-0.1588539980630425	0.02699692682131393	0.02201015351839929	0.03568799893812998	-0.130121733818028	0.003830406932491954	-0.03372280580988094	3.762682580114374e-06	-0.07834500380946514	-0.07834500380945936	-0.007369154957263476	7.328572184277506e-06	0.01662735269506884	0.01161190410436763	-0.4058972997791369	0.01571790791240252	-0.00451877724150119	-0.1896022571963558	0.166115431865746	0.08390696359984756	0.3288290634736263	12.1651444460036	-39.16008491084003	6.580350284827433	-7.947292345110602	-632.4903355792167	-49.96234927864386	-17.80352353552502	2.39519870860433	0.7026637045926517	1.59389727056808	-6.653797156568545	0.2395650521648329	-1.718364653954525	-0.02641887936465369	-3.660901197597104	-3.660901197597152	-0.1238628902466469	-0.01358363709551709	0.2205295592989041	0.3579330724597997	-4.575380923032743e-09	-1.060957818159509e-08	1.509336574417867e-08	-3.339854170179987e-09	-1.155005711175511e-08	3.168986915049714e-08	-7.525387885955548e-09
1.03	-0.7173354667767989	-0.1800274128950096	0.6235802301283643	1.838556357514364	-0.4651833902767555	-0.1404812422913777	-0.2617967262256865	0.9738661860705237	0.9738661860703701	-0.1574133494947439	-0.1745296795195536	-0.08641063466623834	-0.1587192338806641	0.05069288589886684	0.02903558567182574	0.05157650405870508	-0.1962987413527951	0.006373848550314249	-0.05088328286315014	6.460818542419915e-06	-0.1149217567711054	-0.1149217567711018	-0.008351066036346132	4.120097690218017e-06	0.01884932221867166	0.01534681045251623	-0.4052895465275632	0.01568641321929705	-0.00452181262160263	-0.18970561717585	0.1662779139637519	0.08385950343641214	0.3284281890583785	12.24129729389525	-39.16732461484585	6.598087292378413	-8.150172093015881	-632.1606845400787	-50.04865566785769	-17.84803182023473	2.356650910007585	0.7036625864155938	1.584972147688086	-6.597112595172113	0.2623536596869362	-1.713594139343191	0.01346683478657786	-3.653692310282342	-3.653692310282727	-0.08489422543228059	0.006381279383007511	0.2235621032919635	0.3821511660837236	-6.698890308676491e-09	-1.726268988230375e-08	2.35153282960467e-08	-6.773048446834416e-09	-1.562393351998422e-08	4.527849244067234e-08	-1.148785496940894e-08
